<?xml version="1.0" encoding="iso-8859-1"?>
<!-- Generator: Adobe Illustrator 19.0.0, SVG Export Plug-In . SVG Version: 6.00 Build 0)  -->
<svg version="1.1" id="Layer_1" xmlns="http://www.w3.org/2000/svg" xmlns:xlink="http://www.w3.org/1999/xlink" x="0px" y="0px"
	 viewBox="0 0 511.999 511.999" style="enable-background:new 0 0 511.999 511.999;" xml:space="preserve">
<g>
	<g>
		<g>
			<path d="M314.11,201.375c-4.616,0-7.336,2.555-7.336,8.243v21.842c0,5.686,2.72,8.241,7.336,8.241
				c4.616,0,7.417-2.555,7.417-8.241v-21.842C321.526,203.93,318.726,201.375,314.11,201.375z"/>
			<path d="M466.467,86.617h-13.699c0-37.217-26.023-57.957-53.664-57.957c-27.268,0-53.664,20.322-53.664,57.957h-178.88
				c0-37.217-26.023-57.957-53.664-57.957c-27.268,0-53.664,20.322-53.664,57.957h-13.7C20.426,86.617,0,107.043,0,132.15v185.046
				c0,25.107,20.426,45.533,45.533,45.533h13.699v101.096c0,10.777,8.737,19.514,19.514,19.514h68.299
				c10.777,0,19.514-8.737,19.514-19.514V362.729h178.88v101.096c0,10.777,8.737,19.514,19.514,19.514h68.299
				c10.777,0,19.514-8.737,19.514-19.514V362.729h13.699c25.107,0,45.533-20.426,45.533-45.533V132.15
				C512,107.043,491.573,86.617,466.467,86.617z M127.531,86.617H98.26C98.26,61.299,127.531,60.954,127.531,86.617z
				 M127.531,444.311H98.26v-81.582h29.271V444.311z M132.934,196.349l-16.401,50.276c-2.036,5.935-15.559,5.491-16.815,0
				l-4.285-19.534l-4.287,19.534c-1.274,5.569-14.975,5.854-16.813,0l-16.402-50.276c-1.698-5.081,10.836-8.843,12.281-3.791
				L82.74,234.84l6.511-27.858c0.998-4.493,11.366-4.49,12.363,0l6.511,27.858l12.528-42.282
				C122.091,187.518,134.612,191.248,132.934,196.349z M169.617,215.305c5.083,0,5.24,9.891,0,9.891h-12.363v14.012h22.089
				c5.096,0,5.255,11.209,0,11.209h-29.341c-2.802,0-5.606-1.319-5.606-3.956v-52.337c0-2.637,2.802-3.956,5.606-3.956h29.341
				c5.258,0,5.093,11.209,0,11.209h-22.089v13.928H169.617z M227.066,250.416h-26.045c-2.802,0-5.606-1.319-5.606-3.956v-52.42
				c0-2.72,3.215-3.873,6.428-3.873c3.216,0,6.429,1.154,6.429,3.873v45.166h18.791
				C232.013,239.207,232.013,250.416,227.066,250.416z M261.357,239.701c6.593,0,7.007-5.027,7.253-8.242
				c0.247-3.049,3.051-3.874,6.347-3.874c4.451,0,6.511,1.154,6.511,6.1c0,21.775-40.468,25.498-40.468-2.225v-21.841
				c0-27.784,40.468-23.656,40.468-3.049c0,4.945-2.061,6.099-6.428,6.099c-3.462,0-6.265-0.907-6.429-3.873
				c-0.083-2.143-0.329-7.418-7.335-7.418c-4.698,0-7.418,2.637-7.418,8.243v21.841
				C253.857,237.064,256.577,239.701,261.357,239.701z M334.385,231.46c0,14.175-8.902,19.45-20.275,19.45
				c-11.374,0-20.195-5.275-20.195-19.45v-21.842c0-14.176,8.819-19.452,20.195-19.452c11.373,0,20.275,5.275,20.275,19.452V231.46z
				 M369.912,229.07l-7.829-14.342v31.733c0,5.275-12.859,5.275-12.859,0v-49.865c0-4.698,3.215-6.428,6.429-6.428
				c4.614,0,6.593,0.494,9.972,6.428l8.49,14.836l8.489-14.836c3.38-5.935,5.356-6.428,9.973-6.428c3.295,0,6.428,1.732,6.428,6.428
				v49.865c0,5.275-12.859,5.275-12.859,0v-30.908l-7.912,13.517C376.395,232.186,371.644,232.39,369.912,229.07z M413.739,444.311
				h-29.271v-81.582h29.271V444.311z M384.467,86.617c0-25.318,29.271-25.662,29.271,0H384.467z M439.726,215.305
				c5.083,0,5.24,9.891,0,9.891h-12.363v14.012h22.089c5.096,0,5.254,11.209,0,11.209h-29.341c-2.802,0-5.606-1.319-5.606-3.956
				v-52.337c0-2.637,2.802-3.956,5.606-3.956h29.341c5.256,0,5.096,11.209,0,11.209h-22.089v13.928H439.726z"/>
		</g>
	</g>
</g>
<g>
</g>
<g>
</g>
<g>
</g>
<g>
</g>
<g>
</g>
<g>
</g>
<g>
</g>
<g>
</g>
<g>
</g>
<g>
</g>
<g>
</g>
<g>
</g>
<g>
</g>
<g>
</g>
<g>
</g>
</svg>
